<svg xmlns="http://www.w3.org/2000/svg" viewBox="0 0 512 512" aria-hidden="true">
  <path d="M76 206c55 26 94 45 156 56 31-23 61-37 94-41 27-4 58-2 93 7 7 2 13 6 16 12l22 46c4 8 2 18-4 25l-24 26c-7 8-19 9-28 3l-46-31-86 7-51 90c-4 7-11 12-19 12H140c-12 0-21-9-22-21l-6-44 86-19c-35-12-70-29-120-53-10-5-14-17-9-26 6-11 19-15 29-9z" fill="#0f172a"/>
  <path d="M70 201c72 33 116 49 188 59 33-25 67-39 105-44 33-5 69-2 109 9" fill="none" stroke="#22c55e" stroke-width="28" stroke-linecap="round"/>
</svg>
